Coordinates
version=1
nRows=8
nColumns=63
inDegrees=yes

Units are S.I. units (second, meters, Newtons, ...)
If the header above contains a line with 'inDegrees', this indicates whether rotational values are in degrees (yes) or radians (no).

endheader
time	pelvis_tilt	pelvis_list	pelvis_rotation	pelvis_tx	pelvis_ty	pelvis_tz	hip_flexion_r	hip_adduction_r	hip_rotation_r	knee_angle_r	knee_angle_r_beta	ankle_angle_r	subtalar_angle_r	mtp_angle_r	hip_flexion_l	hip_adduction_l	hip_rotation_l	knee_angle_l	knee_angle_l_beta	ankle_angle_l	subtalar_angle_l	mtp_angle_l	L5_S1_Flex_Ext	L5_S1_Lat_Bending	L5_S1_axial_rotation	L4_L5_Flex_Ext	L4_L5_Lat_Bending	L4_L5_axial_rotation	L3_L4_Flex_Ext	L3_L4_Lat_Bending	L3_L4_axial_rotation	L2_L3_Flex_Ext	L2_L3_Lat_Bending	L2_L3_axial_rotation	L1_L2_Flex_Ext	L1_L2_Lat_Bending	L1_L2_axial_rotation	L1_T12_Flex_Ext	L1_T12_Lat_Bending	L1_T12_axial_rotation	Abs_r3	Abs_r2	Abs_r1	Abs_t1	Abs_t2	neck_flexion	neck_bending	neck_rotation	arm_flex_r	arm_add_r	arm_rot_r	elbow_flex_r	pro_sup_r	wrist_flex_r	wrist_dev_r	arm_flex_l	arm_add_l	arm_rot_l	elbow_flex_l	pro_sup_l	wrist_flex_l	wrist_dev_l
      0.00000000	      0.43478191	     -2.72125104	     93.24722473	      0.19222905	      0.66411143	      0.83064388	      6.85850198	     -0.70141970	     -8.95117074	      6.49740689	      0.11340114	     27.72475748	     16.40897350	      0.00000000	      6.16179792	      0.30663190	     -3.24865971	      4.52630613	      0.07899894	     23.47034336	      3.08581899	      0.00000000	      0.44822008	     -0.04717138	     -0.25236603	      0.83238952	     -0.06273793	     -0.26813890	      0.73638078	     -0.11469248	     -0.26813890	      0.51227073	     -0.11469248	     -0.22082027	      0.41621717	     -0.09619187	     -0.20504740	      0.25611296	     -0.07306846	     -0.18927452	      3.20159124	     -0.53361204	     -1.40358413	      0.00000000	      0.00000000	     28.01238710	      7.05991596	     -3.77736222	     13.12224624	     -6.58757980	     55.44189883	     43.21130944	      6.36194524	     -5.54201000	     15.59632866	     18.47830329	     -6.23433879	     61.90558950	     44.91865239	     57.95167763	      1.78545136	     -1.76229607
      0.01754386	     -0.10137093	     -2.74838767	     93.16493011	      0.19361788	      0.66410147	      0.83061989	      6.43117682	     -1.11930453	     -7.12613081	      5.96347698	      0.10408231	     27.04233527	     15.08380736	      0.00000000	      6.01777465	      0.89892219	     -1.08673710	      4.30962273	      0.07521711	     22.88874515	     -0.00303522	      0.00000000	      0.45120173	     -0.16160335	     -0.20852561	      0.83792673	     -0.21493246	     -0.22155846	      0.74127932	     -0.39292240	     -0.22155846	      0.51567846	     -0.39292240	     -0.18245991	      0.41898593	     -0.32954156	     -0.16942706	      0.25781667	     -0.25032360	     -0.15639421	      3.22288884	     -1.82808946	     -1.15975689	      0.00000000	      0.00000000	     28.03628437	      7.37745792	     -6.41164615	     13.14710512	     -5.83431235	     56.87311009	     42.04530977	      6.78622445	     -4.13792847	     14.89661281	     18.34014781	     -6.71549481	     63.77018070	     44.13695094	     57.32746728	      1.52418903	     -1.98033718
      0.03508772	     -0.13451365	     -2.76485479	     93.19517420	      0.19440784	      0.66391683	      0.83098721	      6.35921526	     -1.14166267	     -6.90062291	      6.01053470	      0.10490362	     26.80514627	     15.23705676	      0.00000000	      6.04855119	      0.87960049	     -1.02820088	      4.33881450	      0.07572660	     22.86206933	     -0.01061888	      0.00000000	      0.43786527	     -0.17986609	     -0.22602918	      0.81315959	     -0.23922189	     -0.24015600	      0.71936885	     -0.43732640	     -0.24015600	      0.50043622	     -0.43732640	     -0.19777553	      0.40660169	     -0.36678292	     -0.18364871	      0.25019622	     -0.27861257	     -0.16952188	      3.12762784	     -2.03468113	     -1.25710647	      0.00000000	      0.00000000	     28.10062167	      7.39877123	     -6.42190903	     12.88767203	     -5.65512704	     57.01398596	     42.11135222	      6.80726502	     -4.13412948	     14.96098848	     17.82456651	     -6.88539708	     64.01883421	     43.78972690	     57.35315090	      1.47970294	     -1.89645245
      0.05263158	     -0.73355559	     -2.98543008	     93.09928074	      0.19513830	      0.66370682	      0.83094267	      6.09708169	     -1.70628135	     -6.08523971	      5.15435222	      0.08996042	     26.44425356	     15.06095421	      0.00000000	      6.19311390	      1.50635460	     -0.77508116	      4.30297587	      0.07510110	     22.43095392	     -0.58952387	      0.00000000	      0.46578532	     -0.27188988	     -0.21199201	      0.86500992	     -0.36161355	     -0.22524152	      0.76523871	     -0.66107306	     -0.22524152	      0.53234605	     -0.66107306	     -0.18549301	      0.43252825	     -0.55443785	     -0.17224351	      0.26614973	     -0.42115743	     -0.15899401	      3.32705799	     -3.07567275	     -1.17903599	      0.00000000	      0.00000000	     28.07425807	      8.41442115	     -6.64527832	     12.69287220	     -5.24890550	     57.26067667	     41.95879587	      6.96611553	     -4.28976520	     15.41262394	     17.47106867	     -7.28161593	     64.99544337	     43.54054076	     57.26757938	      0.93465611	     -2.52968836
      0.07017544	     -0.92829439	     -3.00123767	     93.04214858	      0.19564616	      0.66342717	      0.83090642	      5.90715150	     -1.86309160	     -5.36000539	      4.81718408	      0.08407572	     26.47360503	     14.58573843	      0.00000000	      6.13518011	      1.70059938	     -0.47422658	      4.22489213	      0.07373828	     22.18246727	     -1.11817131	      0.00000000	      0.45382411	     -0.29699058	     -0.21706215	      0.84279676	     -0.39499747	     -0.23062853	      0.74558763	     -0.72210290	     -0.23062853	      0.51867558	     -0.72210290	     -0.18992938	      0.42142107	     -0.60562319	     -0.17636299	      0.25931510	     -0.46003841	     -0.16279661	      3.24162025	     -3.35961685	     -1.20723455	      0.00000000	      0.00000000	     28.10751363	      8.79469798	     -5.92576297	     12.29968316	     -5.35210456	     56.83184548	     42.66167274	      6.98844277	     -4.30635993	     15.68064675	     17.15712245	     -7.58225504	     65.70159548	     43.72131710	     56.74031611	      0.17255810	     -3.48349063
      0.08771930	     -0.88686406	     -3.00510923	     92.99156230	      0.19619692	      0.66328897	      0.83088184	      5.61168003	     -1.65429450	     -2.66090498	      4.18123562	      0.07297633	     25.90086688	     11.31440608	      0.00000000	      6.02170729	      1.71061550	      1.71511355	      4.00683152	      0.06993240	     21.26486054	     -4.39014912	      0.00000000	      0.44506354	     -0.28676213	     -0.15862438	      0.82652751	     -0.38139363	     -0.16853841	      0.73119489	     -0.69723343	     -0.16853841	      0.50866312	     -0.69723343	     -0.13879634	      0.41328601	     -0.58476533	     -0.12888231	      0.25430931	     -0.44419453	     -0.11896829	      3.17904438	     -3.24391052	     -0.88222124	      0.00000000	      0.00000000	     28.10679086	      9.10619808	     -4.59402706	     11.30649089	     -5.30784769	     54.06910783	     43.66154901	      5.90080545	     -6.54468797	     17.11738304	     17.98654751	     -7.71896250	     70.16400991	     43.83721790	     50.73801908	     -2.38874662	     -5.89817696
      0.10526316	     -0.91412562	     -3.05940505	     92.91459243	      0.19656024	      0.66300040	      0.83100848	      5.52796929	     -1.64686344	     -1.99606742	      3.84370622	      0.06708533	     25.78954638	     10.67032264	      0.00000000	      6.07362693	      1.70939001	      1.38518713	      4.00863246	      0.06996383	     21.17804328	     -4.05632759	      0.00000000	      0.44009545	     -0.28231663	     -0.15697845	      0.81730126	     -0.37548112	     -0.16678960	      0.72303281	     -0.68642466	     -0.16678960	      0.50298509	     -0.68642466	     -0.13735614	      0.40867263	     -0.57570008	     -0.12754499	      0.25147054	     -0.43730846	     -0.11773384	      3.14355778	     -3.19362221	     -0.87306703	      0.00000000	      0.00000000	     28.11534651	      9.52942641	     -3.18303368	     10.94150855	     -5.44700777	     53.19842017	     44.45071716	      5.51108637	     -7.45229236	     17.31303782	     17.86983498	     -7.78251422	     70.35690701	     44.16471765	     49.38245534	     -3.05689052	     -6.41574945
      0.12280702	     -0.94413300	     -3.11628116	     92.91032231	      0.19683281	      0.66270337	      0.83118817	      5.51131387	     -1.68318533	     -2.18587285	      3.67700168	      0.06417579	     25.71130547	     10.96040322	      0.00000000	      6.20586871	      1.67601908	      0.18676732	      4.13373589	      0.07214730	     21.43950404	     -2.34353449	      0.00000000	      0.43636326	     -0.28163493	     -0.16878714	      0.81037021	     -0.37457445	     -0.17933633	      0.71690120	     -0.68476716	     -0.17933633	      0.49871957	     -0.68476716	     -0.14768875	      0.40520692	     -0.57430994	     -0.13713955	      0.24933797	     -0.43625250	     -0.12659035	      3.11689912	     -3.18591061	     -0.93874342	      0.00000000	      0.00000000	     28.11900258	      9.96223188	     -1.92735951	     10.69835166	     -5.58531066	     52.62155360	     45.14121073	      5.16992160	     -8.09193347	     17.07687780	     17.77604231	     -7.84522375	     70.07027699	     44.57694635	     48.42527501	     -3.38477640	     -6.54194987
